Coordinates
nRows=7
nColumns=38

# SIMM Motion File Header:
name Coordinates
datacolumns 38
datarows 7
otherdata 1
range 0.56111999999999995000 0.56711999999999996000

Units are S.I. units (second, meters, Newtons, ...)
Angles are in degrees.

endheader
time	pelvis_tilt	pelvis_list	pelvis_rotation	pelvis_tx	pelvis_ty	pelvis_tz	hip_flexion_r	hip_adduction_r	hip_rotation_r	knee_angle_r	ankle_angle_r	subtalar_angle_r	mtp_angle_r	hip_flexion_l	hip_adduction_l	hip_rotation_l	knee_angle_l	ankle_angle_l	subtalar_angle_l	mtp_angle_l	lumbar_extension	lumbar_bending	lumbar_rotation	arm_flex_r	arm_add_r	arm_rot_r	elbow_flex_r	pro_sup_r	wrist_flex_r	wrist_dev_r	arm_flex_l	arm_add_l	arm_rot_l	elbow_flex_l	pro_sup_l	wrist_flex_l	wrist_dev_l
      0.56111999999999995000	     -0.22910081688712344000	     -0.45512227664899524000	      0.09973166558732418600	      0.50400317323320742000	      1.02604434134020830000	     -0.31673602207047358000	    -10.19916782024925400000	      2.97346572640263230000	     -0.53285298377437651000	    -30.53456553841325400000	    -14.18574875596209100000	     -0.00000000000007149447	      0.00000000000002762271	     19.49180133066029400000	      2.63394655569426120000	      3.80800718459361140000	    -16.55839807752754600000	      2.49583591621457850000	      0.00000000000000186754	     -0.00000000000000946314	    -10.96245285719277400000	      1.09438593250603700000	      8.98003750605645830000	     -7.69929832441391150000	    -32.10873552658210200000	     18.28924595290779800000	    119.54222640080263000000	     75.38866958560500100000	     -0.00000000000000141846	      0.00000000000005949139	    -31.79590407605876100000	    -23.96151499924385700000	     -1.23700125517011170000	    124.32445866897578000000	     90.83392408797890000000	      0.00000000000001585101	     -0.00000000000000411347
      0.56211999999999995000	     -0.22160581242017480000	     -0.47911582805460390000	      0.09451424758961574100	      0.50408106376602757000	      1.02585475472061540000	     -0.31670043499710648000	    -10.04433389455568600000	      2.97446564306392600000	     -0.55105114570762603000	    -30.99053459694565400000	    -14.30489739728342600000	     -0.00000000000007201378	      0.00000000000002785400	     19.42051197580962100000	      2.59688016866464720000	      3.64913863923574230000	    -16.45350234129563900000	      2.39015190411693190000	      0.00000000000000188932	     -0.00000000000000943625	    -10.95631882264400000000	      1.09997463448221080000	      8.95052749208107380000	     -7.71168306142271920000	    -32.11021076183259000000	     18.36415284175791700000	    119.53816290775275000000	     75.38858715333373100000	     -0.00000000000000142353	      0.00000000000005981221	    -31.79224874000922100000	    -23.96123462553957900000	     -1.29219173586083790000	    124.33267847898780000000	     90.83244304013152300000	      0.00000000000001599058	     -0.00000000000000413135
      0.56311999999999995000	     -0.21154315597905368000	     -0.50147814305657368000	      0.08965510129630112300	      0.50415705352011297000	      1.02565899686335250000	     -0.31666555339963159000	     -9.88943436803984000000	      2.97318694887610760000	     -0.57217929578993043000	    -31.45067886819289500000	    -14.42472815606120100000	     -0.00000000000007253344	      0.00000000000002808513	     19.34757791908643700000	      2.56170908840797430000	      3.48885643070147470000	    -16.35630296751530500000	      2.27912866826177170000	      0.00000000000000191058	     -0.00000000000000940739	    -10.95348504121023600000	      1.10365112179541100000	      8.91927826086924290000	     -7.72402320528716670000	    -32.11074260414858400000	     18.43771528666633900000	    119.53381191744199000000	     75.38829006493898500000	     -0.00000000000000142898	      0.00000000000006013295	    -31.78788009806716300000	    -23.96142983278423700000	     -1.34786256640289470000	    124.34110828482096000000	     90.83049186928373300000	      0.00000000000001613033	     -0.00000000000000414817
      0.56411999999999995000	     -0.19892623123295189000	     -0.52223015044308696000	      0.08511744039150596900	      0.50423117646901361000	      1.02545699772342980000	     -0.31663134795839820000	     -9.73449435165454880000	      2.96960731613569530000	     -0.59621612805669177000	    -31.91490511978630800000	    -14.54516601127104300000	     -0.00000000000007305240	      0.00000000000002831638	     19.27294163578978800000	      2.52840834607743490000	      3.32741416994563900000	    -16.26666014819289800000	      2.16421870199124950000	      0.00000000000000193189	     -0.00000000000000937736	    -10.95393805293752900000	      1.10543525035389890000	      8.88635552381194140000	     -7.73635691478395330000	    -32.11034348387230600000	     18.50990914055805800000	    119.52919766079422000000	     75.38780148414936400000	     -0.00000000000000143492	      0.00000000000006045468	    -31.78277876576421700000	    -23.96212229207536700000	     -1.40396339969602170000	    124.34977213816587000000	     90.82801247886136800000	      0.00000000000001627031	     -0.00000000000000416466
      0.56511999999999996000	     -0.18406990952367119000	     -0.54140468052592683000	      0.08082653502722748900	      0.50430323613909855000	      1.02524852081282300000	     -0.31659776352921448000	     -9.57913813730324830000	      2.96370411242719990000	     -0.62310099245987438000	    -32.38327359062524400000	    -14.66608609091589700000	     -0.00000000000007357006	      0.00000000000002854770	     19.19699026389566000000	      2.49693671624817040000	      3.16489369189924520000	    -16.18463811634742200000	      2.04426177954603980000	      0.00000000000000195346	     -0.00000000000000934454	    -10.95734913903153700000	      1.10535379584570160000	      8.85185841678339180000	     -7.74875820972051700000	    -32.10901301080118500000	     18.58070347058591300000	    119.52431194139683000000	     75.38718431095044500000	     -0.00000000000000144121	      0.00000000000006077687	    -31.77693140978134800000	    -23.96332016457688100000	     -1.46043869201147960000	    124.35864404270880000000	     90.82497409132666600000	      0.00000000000001641057	     -0.00000000000000418366
      0.56611999999999996000	     -0.16708566862505328000	     -0.55898311506990872000	      0.07677860416155991900	      0.50437312269005385000	      1.02503360012672600000	     -0.31656484251511507000	     -9.42326637685163780000	      2.95541010202523860000	     -0.65284880415764479000	    -32.85573871866022700000	    -14.78737332423925800000	     -0.00000000000007408939	      0.00000000000002877949	     19.11985075582605400000	      2.46733379248868450000	      3.00150279403109370000	    -16.11023073948077000000	      1.91897888623779810000	      0.00000000000000197646	     -0.00000000000000930904	    -10.96361008258572100000	      1.10338748984351410000	      8.81581128023207230000	     -7.76126793074747480000	    -32.10674693410641800000	     18.65007124615383600000	    119.51915639198063000000	     75.38648958095859600000	     -0.00000000000000144734	      0.00000000000006109889	    -31.77030510924404200000	    -23.96505341116244000000	     -1.51723847331234500000	    124.36772746771692000000	     90.82132250151944700000	      0.00000000000001655086	     -0.00000000000000420344
      0.56711999999999996000	     -0.14782964312135402000	     -0.57492766126013217000	      0.07309673092378117500	      0.50444090955192478000	      1.02481240771033440000	     -0.31653278342048885000	     -9.26714129530193630000	      2.94466277918685780000	     -0.68558936296406414000	    -33.33209584528397300000	    -14.90892847523364900000	     -0.00000000000007460868	      0.00000000000002901226	     19.04130063570362100000	      2.43969552074509540000	      2.83766862860683530000	    -16.04329575470692100000	      1.79002642083544220000	      0.00000000000000200461	     -0.00000000000000927402	    -10.97287959443944900000	      1.09951591472768340000	      8.77811609259194190000	     -7.77389382662909330000	    -32.10354380385549400000	     18.71799075308000900000	    119.51375706503627000000	     75.38574426792637000000	     -0.00000000000000145365	      0.00000000000006142067	    -31.76286262099634100000	    -23.96737243220717400000	     -1.57432254486215580000	    124.37707501885596000000	     90.81697404106316200000	      0.00000000000001669108	     -0.00000000000000422170
